<svg width="15" height="15" viewBox="0 0 15 15" fill="none" xmlns="http://www.w3.org/2000/svg">
<path fill-rule="evenodd" clip-rule="evenodd" d="M13.91 8.47992C13.3748 8.61519 12.825 8.68404 12.273 8.68492C11.4661 8.6885 10.6664 8.5322 9.92025 8.22505C9.17406 7.9179 8.4961 7.46599 7.92552 6.8954C7.35493 6.32482 6.90302 5.64686 6.59587 4.90067C6.28872 4.15448 6.13243 3.35484 6.136 2.54792C6.136 2.00292 6.205 1.45792 6.341 0.911922C6.409 0.706922 6.341 0.434922 6.136 0.229922C5.932 0.0259221 5.727 -0.0430779 5.455 0.0259221C2.25 0.979922 0 3.97992 0 7.31992C0 11.4799 3.34 14.8199 7.5 14.8199C10.84 14.8199 13.84 12.5699 14.727 9.29692C14.796 9.09292 14.727 8.81992 14.523 8.61492C14.4403 8.54248 14.3407 8.49205 14.2334 8.46828C14.1261 8.44451 14.0145 8.44817 13.909 8.47892L13.91 8.47992Z" fill="black"/>
</svg>
