<svg width="167" height="50" viewBox="0 0 167 50" fill="none" xmlns="http://www.w3.org/2000/svg">
<path d="M102.42 0.000999809C126.037 9.09369 119.635 29.5904 115.626 39.0233H138.276C139.845 33.0984 148.559 -0.210185 102.42 0.000999809ZM32.9696 18.6087V25.4722H45.8928C47.6614 25.4722 48.475 25.1437 48.475 23.5247V20.568C48.475 18.949 47.6614 18.6205 45.8928 18.6205H32.9696V18.6087ZM27.3217 14.3733H48.475C52.26 14.3733 54.0286 15.7108 54.0286 19.1367V24.8973C54.0286 28.3233 52.26 29.6607 48.475 29.6607H45.2207L56.6109 38.9412H48.3807L38.429 29.6607H32.9696V38.9412H27.3217V14.3616V14.3733ZM58.238 14.3733H86.9259L84.5913 18.6557H63.9804V25.132H80.8771L78.342 29.6138H63.9804V38.9412H58.238V14.3733ZM100.58 29.1328L95.2741 19.1367L89.7676 29.1328H100.58ZM92.68 14.3733H98.2336L112.395 38.9529H105.933L102.962 33.5677H87.315L84.438 38.9529H78.6957L92.6683 14.3733H92.68ZM137.345 41.1586L27.3099 41.8978C27.2156 41.8978 27.133 41.9799 27.1212 42.0737C27.1212 42.0737 27.0977 42.5078 27.0977 42.5195C27.0977 42.5665 27.1094 42.6134 27.1448 42.6486C27.1802 42.6838 27.2274 42.7073 27.2745 42.7073C27.2745 42.7073 131.19 44.1621 131.709 44.1621C131.544 44.6079 129.751 49.3948 129.751 49.3948C129.74 49.4183 129.74 49.43 129.74 49.4535C129.74 49.5121 129.775 49.5826 129.822 49.6177C129.857 49.6294 129.881 49.6412 129.916 49.6412C129.964 49.6412 130.023 49.6177 130.058 49.5826L137.475 41.4754C137.522 41.4167 137.533 41.3463 137.51 41.2759C137.486 41.2055 137.416 41.1586 137.345 41.1586Z" fill="#081210"/>
</svg>
